<?xml version="1.0" standalone="no"?>
<!DOCTYPE svg PUBLIC "-//W3C//DTD SVG 20010904//EN"
 "http://www.w3.org/TR/2001/REC-SVG-20010904/DTD/svg10.dtd">
<svg version="1.0" xmlns="http://www.w3.org/2000/svg"
 width="224.000000pt" height="225.000000pt" viewBox="0 0 224.000000 225.000000"
 preserveAspectRatio="xMidYMid meet">

<g transform="translate(0.000000,225.000000) scale(0.100000,-0.100000)"
fill="#000000" stroke="none">
<path d="M805 2133 c-106 -15 -250 -71 -342 -134 -247 -169 -386 -479 -344
-767 74 -506 571 -816 1051 -656 353 118 582 477 540 848 -21 180 -94 329
-235 478 -162 170 -433 264 -670 231z m218 -187 c281 -54 487 -289 503 -576 7
-119 -12 -217 -62 -318 -41 -85 -137 -192 -219 -247 -198 -131 -477 -132 -676
-3 -193 124 -299 334 -286 567 6 124 34 210 98 305 145 217 389 320 642 272z"/>
<path d="M1576 774 c-38 -42 -98 -99 -133 -126 -35 -27 -63 -53 -63 -57 0 -4
94 -104 210 -223 141 -145 224 -223 253 -237 50 -24 116 -27 156 -7 43 23 108
100 120 142 13 48 13 50 0 99 -9 33 -52 81 -232 263 -122 122 -226 222 -232
222 -6 0 -41 -34 -79 -76z"/>
</g>
</svg>
